<svg width="32" height="32" viewBox="0 0 32 32" fill="none" xmlns="http://www.w3.org/2000/svg">
<rect width="32" height="32" fill="white"/>
<path fill-rule="evenodd" clip-rule="evenodd" d="M26.1863 25.9613C23.4977 27.9438 19.6018 29 16.2478 29C11.5353 29 7.30864 27.2613 4.10495 24.3663C3.8612 24.1388 4.07895 23.8284 4.3812 24.0056C7.83839 26.0181 12.1203 27.2288 16.5289 27.2288C19.7127 27.2141 22.8622 26.5702 25.7963 25.334C26.2513 25.1406 26.6331 25.6322 26.1863 25.9621V25.9613ZM27.3043 24.6824C26.963 24.2436 25.0325 24.4752 24.168 24.5768C23.9039 24.6093 23.8641 24.3793 24.1014 24.2144C25.6451 23.1338 28.159 23.4449 28.4531 23.8081C28.7473 24.1713 28.3768 26.7006 26.9338 27.9064C26.712 28.0916 26.5007 27.9933 26.6088 27.7471C26.9338 26.9379 27.6601 25.1228 27.3156 24.6824" fill="#FF9900"/>
<path fill-rule="evenodd" clip-rule="evenodd" d="M18.1571 14.2645C18.1571 15.6393 18.1921 16.7857 17.4974 18.0061C16.9286 18.9973 16.0349 19.6091 15.0558 19.6091C13.7014 19.6091 12.9076 18.5773 12.9076 17.0538C12.9076 14.0476 15.6018 13.5007 18.1579 13.5007V14.2645H18.1571ZM21.7167 22.864C21.4835 23.0728 21.1463 23.0874 20.8831 22.9485C19.7131 21.9759 19.4986 21.5242 18.8583 20.5963C16.9229 22.5707 15.5482 23.1614 13.0424 23.1614C10.0703 23.1614 7.76282 21.33 7.76282 17.6632C7.76282 14.7999 9.31063 12.8499 11.5247 11.8969C13.4398 11.0535 16.1153 10.9056 18.1588 10.6781V10.2312C18.1588 9.39275 18.2238 8.39988 17.7281 7.67594C17.3016 7.02594 16.4769 6.75781 15.7481 6.75781C14.4034 6.75781 13.2074 7.44844 12.9149 8.87681C12.8556 9.20181 12.6224 9.50731 12.2998 9.52194L8.87025 9.13844C8.58263 9.07344 8.26088 8.84106 8.34457 8.40719C9.13675 4.25125 12.8881 3 16.2429 3C17.9597 3 20.203 3.45662 21.5566 4.75662C23.2734 6.35969 23.1101 8.49819 23.1101 10.826V16.325C23.1101 17.9776 23.7951 18.7016 24.4402 19.5953C24.6636 19.9203 24.7132 20.2941 24.4256 20.5329C23.5149 21.303 22.6135 22.0838 21.7216 22.8754L21.7167 22.8656" fill="#221F1F"/>
</svg>
