<svg width="50" height="50" viewBox="0 0 50 50" fill="none" xmlns="http://www.w3.org/2000/svg">
<g clip-path="url(#clip0)">
<rect width="50" height="50" fill="white"/>
<circle cx="39" cy="28" r="6" fill="#D9A326"/>
<path d="M33 41C33 37.6863 35.6863 35 39 35C42.3137 35 45 37.6863 45 41V53H33V41Z" fill="#D9A326"/>
<circle cx="11" cy="28" r="6" fill="#D9A326"/>
<path d="M5 41C5 37.6863 7.68629 35 11 35C14.3137 35 17 37.6863 17 41V53H5V41Z" fill="#D9A326"/>
<path d="M33.518 17.1337L33.518 17.1337L34.0771 19.37L31.3828 16.6757C31.2703 16.5632 31.1177 16.5 30.9586 16.5H22C21.1716 16.5 20.5 15.8284 20.5 15V8C20.5 7.17157 21.1716 6.5 22 6.5H35C35.8284 6.5 36.5 7.17157 36.5 8V15C36.5 15.8284 35.8284 16.5 35 16.5H34.0128C33.681 16.5 33.4376 16.8118 33.518 17.1337Z" fill="white" stroke="#D9A326"/>
<path d="M16 10H29C30.1046 10 31 10.8954 31 12V18C31 19.1046 30.1046 20 29 20H19L15.5122 22.6158C15.3553 22.7335 15.1405 22.5786 15.2025 22.3926L16 20C14.8954 20 14 19.1046 14 18V12C14 10.8954 14.8954 10 16 10Z" fill="#D9A326"/>
<circle cx="18.5" cy="15" r="1" fill="#F0DAA8"/>
<circle cx="22.5" cy="15" r="1" fill="#F0DAA8"/>
<circle cx="26.5" cy="15" r="1" fill="#F0DAA8"/>
</g>
<defs>
<clipPath id="clip0">
<rect width="50" height="50" fill="white"/>
</clipPath>
</defs>
</svg>
